<?xml version="1.0" encoding="UTF-8" standalone="no"?>
<!DOCTYPE svg PUBLIC "-//W3C//DTD SVG 1.1//EN"
 "http://www.w3.org/Graphics/SVG/1.1/DTD/svg11.dtd">
<!-- Generated by graphviz version 2.43.0 (0)
 -->
<!-- Title: G Pages: 1 -->
<svg width="1480pt" height="568pt"
 viewBox="0.00 0.00 1480.20 568.20" xmlns="http://www.w3.org/2000/svg" xmlns:xlink="http://www.w3.org/1999/xlink">
<g id="graph0" class="graph" transform="scale(1 1) rotate(0) translate(21.6 546.6)">
<title>G</title>
<polygon fill="#111111" stroke="transparent" points="-21.6,21.6 -21.6,-546.6 1458.6,-546.6 1458.6,21.6 -21.6,21.6"/>
<!-- proxy/adtProxy/adtProxyBuilder.ts -->
<g id="node1" class="node">
<title>proxy/adtProxy/adtProxyBuilder.ts</title>
<path fill="none" stroke="#ff6c60" d="M613.33,-445C613.33,-445 409.67,-445 409.67,-445 405.83,-445 402,-441.17 402,-437.33 402,-437.33 402,-429.67 402,-429.67 402,-425.83 405.83,-422 409.67,-422 409.67,-422 613.33,-422 613.33,-422 617.17,-422 621,-425.83 621,-429.67 621,-429.67 621,-437.33 621,-437.33 621,-441.17 617.17,-445 613.33,-445"/>
<text text-anchor="middle" x="511.5" y="-429.8" font-family="Arial" font-size="14.00" fill="#ff6c60">proxy/adtProxy/adtProxyBuilder.ts</text>
</g>
<!-- proxy/adtProxy/array.proxyBuilder.ts -->
<g id="node2" class="node">
<title>proxy/adtProxy/array.proxyBuilder.ts</title>
<path fill="none" stroke="#ff6c60" d="M982.33,-404C982.33,-404 764.67,-404 764.67,-404 760.83,-404 757,-400.17 757,-396.33 757,-396.33 757,-388.67 757,-388.67 757,-384.83 760.83,-381 764.67,-381 764.67,-381 982.33,-381 982.33,-381 986.17,-381 990,-384.83 990,-388.67 990,-388.67 990,-396.33 990,-396.33 990,-400.17 986.17,-404 982.33,-404"/>
<text text-anchor="middle" x="873.5" y="-388.8" font-family="Arial" font-size="14.00" fill="#ff6c60">proxy/adtProxy/array.proxyBuilder.ts</text>
</g>
<!-- proxy/adtProxy/adtProxyBuilder.ts&#45;&gt;proxy/adtProxy/array.proxyBuilder.ts -->
<g id="edge1" class="edge">
<title>proxy/adtProxy/adtProxyBuilder.ts&#45;&gt;proxy/adtProxy/array.proxyBuilder.ts</title>
<path fill="none" stroke="#757575" d="M548.2,-421.97C581.31,-415.81 631.96,-409.55 676,-404.5 698.89,-401.88 723.29,-399.18 746.84,-396.8"/>
<polygon fill="#757575" stroke="#757575" points="747.27,-400.28 756.87,-395.8 746.58,-393.31 747.27,-400.28"/>
</g>
<!-- proxy/adtProxy/map.proxyBuilder.ts -->
<g id="node3" class="node">
<title>proxy/adtProxy/map.proxyBuilder.ts</title>
<path fill="none" stroke="#ff6c60" d="M980.83,-445C980.83,-445 766.17,-445 766.17,-445 762.33,-445 758.5,-441.17 758.5,-437.33 758.5,-437.33 758.5,-429.67 758.5,-429.67 758.5,-425.83 762.33,-422 766.17,-422 766.17,-422 980.83,-422 980.83,-422 984.67,-422 988.5,-425.83 988.5,-429.67 988.5,-429.67 988.5,-437.33 988.5,-437.33 988.5,-441.17 984.67,-445 980.83,-445"/>
<text text-anchor="middle" x="873.5" y="-429.8" font-family="Arial" font-size="14.00" fill="#ff6c60">proxy/adtProxy/map.proxyBuilder.ts</text>
</g>
<!-- proxy/adtProxy/adtProxyBuilder.ts&#45;&gt;proxy/adtProxy/map.proxyBuilder.ts -->
<g id="edge2" class="edge">
<title>proxy/adtProxy/adtProxyBuilder.ts&#45;&gt;proxy/adtProxy/map.proxyBuilder.ts</title>
<path fill="none" stroke="#757575" d="M621,-427.25C661.07,-426.66 706.78,-426.59 748.15,-427.05"/>
<polygon fill="#757575" stroke="#757575" points="748.24,-430.55 758.29,-427.17 748.33,-423.55 748.24,-430.55"/>
</g>
<!-- proxy/adtProxy/object.proxyBuilder.ts -->
<g id="node4" class="node">
<title>proxy/adtProxy/object.proxyBuilder.ts</title>
<path fill="none" stroke="#ff6c60" d="M985.33,-525C985.33,-525 761.67,-525 761.67,-525 757.83,-525 754,-521.17 754,-517.33 754,-517.33 754,-509.67 754,-509.67 754,-505.83 757.83,-502 761.67,-502 761.67,-502 985.33,-502 985.33,-502 989.17,-502 993,-505.83 993,-509.67 993,-509.67 993,-517.33 993,-517.33 993,-521.17 989.17,-525 985.33,-525"/>
<text text-anchor="middle" x="873.5" y="-509.8" font-family="Arial" font-size="14.00" fill="#ff6c60">proxy/adtProxy/object.proxyBuilder.ts</text>
</g>
<!-- proxy/adtProxy/adtProxyBuilder.ts&#45;&gt;proxy/adtProxy/object.proxyBuilder.ts -->
<g id="edge3" class="edge">
<title>proxy/adtProxy/adtProxyBuilder.ts&#45;&gt;proxy/adtProxy/object.proxyBuilder.ts</title>
<path fill="none" stroke="#757575" d="M562.62,-445.03C594.63,-455.39 637.25,-469.62 676,-478.5 720.65,-488.73 771.99,-495.35 810.99,-500.62"/>
<polygon fill="#757575" stroke="#757575" points="810.76,-504.12 821.14,-502 811.7,-497.18 810.76,-504.12"/>
</g>
<!-- proxy/adtProxy/array.proxyBuilder.ts&#45;&gt;proxy/adtProxy/adtProxyBuilder.ts -->
<g id="edge4" class="edge">
<title>proxy/adtProxy/array.proxyBuilder.ts&#45;&gt;proxy/adtProxy/adtProxyBuilder.ts</title>
<path fill="none" stroke="#757575" d="M828.77,-404.02C788.94,-410.11 728.49,-416.48 676,-422.5 661.57,-424.15 646.44,-425.94 631.44,-427.67"/>
<polygon fill="#757575" stroke="#757575" points="630.62,-424.24 621.09,-428.85 631.42,-431.19 630.62,-424.24"/>
</g>
<!-- proxy/proxyValueAndSaveIt.ts -->
<g id="node5" class="node">
<title>proxy/proxyValueAndSaveIt.ts</title>
<path fill="none" stroke="#ff6c60" d="M1362.83,-485C1362.83,-485 1181.17,-485 1181.17,-485 1177.33,-485 1173.5,-481.17 1173.5,-477.33 1173.5,-477.33 1173.5,-469.67 1173.5,-469.67 1173.5,-465.83 1177.33,-462 1181.17,-462 1181.17,-462 1362.83,-462 1362.83,-462 1366.67,-462 1370.5,-465.83 1370.5,-469.67 1370.5,-469.67 1370.5,-477.33 1370.5,-477.33 1370.5,-481.17 1366.67,-485 1362.83,-485"/>
<text text-anchor="middle" x="1272" y="-469.8" font-family="Arial" font-size="14.00" fill="#ff6c60">proxy/proxyValueAndSaveIt.ts</text>
</g>
<!-- proxy/adtProxy/array.proxyBuilder.ts&#45;&gt;proxy/proxyValueAndSaveIt.ts -->
<g id="edge5" class="edge">
<title>proxy/adtProxy/array.proxyBuilder.ts&#45;&gt;proxy/proxyValueAndSaveIt.ts</title>
<path fill="none" stroke="#757575" d="M990.12,-401.26C1016.83,-404.27 1045.02,-408.26 1071,-413.5 1126.86,-424.76 1189.52,-444.81 1229.57,-458.62"/>
<polygon fill="#757575" stroke="#757575" points="1228.65,-462 1239.25,-461.98 1230.95,-455.39 1228.65,-462"/>
</g>
<!-- proxy/adtProxy/map.proxyBuilder.ts&#45;&gt;proxy/adtProxy/adtProxyBuilder.ts -->
<g id="edge6" class="edge">
<title>proxy/adtProxy/map.proxyBuilder.ts&#45;&gt;proxy/adtProxy/adtProxyBuilder.ts</title>
<path fill="none" stroke="#757575" d="M758.29,-439.83C717.71,-440.37 671.95,-440.39 631.02,-439.89"/>
<polygon fill="#757575" stroke="#757575" points="631.05,-436.39 621,-439.75 630.95,-443.39 631.05,-436.39"/>
</g>
<!-- proxy/adtProxy/object.proxyBuilder.ts&#45;&gt;proxy/adtProxy/adtProxyBuilder.ts -->
<g id="edge7" class="edge">
<title>proxy/adtProxy/object.proxyBuilder.ts&#45;&gt;proxy/adtProxy/adtProxyBuilder.ts</title>
<path fill="none" stroke="#757575" d="M753.92,-510.24C728.08,-506.82 700.99,-502.23 676,-496.5 625.83,-485 569.18,-464.54 537.47,-449.64"/>
<polygon fill="#757575" stroke="#757575" points="538.98,-446.48 528.46,-445.21 535.89,-452.76 538.98,-446.48"/>
</g>
<!-- proxy/adtProxy/object.proxyBuilder.ts&#45;&gt;proxy/proxyValueAndSaveIt.ts -->
<g id="edge8" class="edge">
<title>proxy/adtProxy/object.proxyBuilder.ts&#45;&gt;proxy/proxyValueAndSaveIt.ts</title>
<path fill="none" stroke="#757575" d="M988.65,-501.98C1043.68,-496.43 1109.32,-489.81 1163.45,-484.35"/>
<polygon fill="#757575" stroke="#757575" points="1163.83,-487.83 1173.42,-483.34 1163.12,-480.87 1163.83,-487.83"/>
</g>
<!-- proxy/proxyValueAndSaveIt.ts&#45;&gt;proxy/adtProxy/adtProxyBuilder.ts -->
<g id="edge9" class="edge">
<title>proxy/proxyValueAndSaveIt.ts&#45;&gt;proxy/adtProxy/adtProxyBuilder.ts</title>
<path fill="none" stroke="#757575" d="M1173.44,-473.25C1055.45,-472.28 850.88,-468.49 676,-454.5 651.3,-452.52 624.61,-449.48 600.1,-446.32"/>
<polygon fill="#757575" stroke="#757575" points="600.47,-442.84 590.1,-445.01 599.56,-449.78 600.47,-442.84"/>
</g>
<!-- proxy/storeForConsumerComponentProxy.ts -->
<g id="node6" class="node">
<title>proxy/storeForConsumerComponentProxy.ts</title>
<path fill="none" stroke="#ff6c60" d="M1406.83,-193C1406.83,-193 1137.17,-193 1137.17,-193 1133.33,-193 1129.5,-189.17 1129.5,-185.33 1129.5,-185.33 1129.5,-177.67 1129.5,-177.67 1129.5,-173.83 1133.33,-170 1137.17,-170 1137.17,-170 1406.83,-170 1406.83,-170 1410.67,-170 1414.5,-173.83 1414.5,-177.67 1414.5,-177.67 1414.5,-185.33 1414.5,-185.33 1414.5,-189.17 1410.67,-193 1406.83,-193"/>
<text text-anchor="middle" x="1272" y="-177.8" font-family="Arial" font-size="14.00" fill="#ff6c60">proxy/storeForConsumerComponentProxy.ts</text>
</g>
<!-- store/administrator/storeAdministrator.ts -->
<g id="node7" class="node">
<title>store/administrator/storeAdministrator.ts</title>
<path fill="none" stroke="#ff6c60" d="M632.33,-193C632.33,-193 390.67,-193 390.67,-193 386.83,-193 383,-189.17 383,-185.33 383,-185.33 383,-177.67 383,-177.67 383,-173.83 386.83,-170 390.67,-170 390.67,-170 632.33,-170 632.33,-170 636.17,-170 640,-173.83 640,-177.67 640,-177.67 640,-185.33 640,-185.33 640,-189.17 636.17,-193 632.33,-193"/>
<text text-anchor="middle" x="511.5" y="-177.8" font-family="Arial" font-size="14.00" fill="#ff6c60">store/administrator/storeAdministrator.ts</text>
</g>
<!-- proxy/storeForConsumerComponentProxy.ts&#45;&gt;store/administrator/storeAdministrator.ts -->
<g id="edge10" class="edge">
<title>proxy/storeForConsumerComponentProxy.ts&#45;&gt;store/administrator/storeAdministrator.ts</title>
<path fill="none" stroke="#757575" d="M1129.43,-186.9C992.43,-188.72 786.1,-188.7 650.37,-186.85"/>
<polygon fill="#757575" stroke="#757575" points="650.36,-183.35 640.31,-186.7 650.26,-190.35 650.36,-183.35"/>
</g>
<!-- store/administrator/storeAdministrator.ts&#45;&gt;proxy/storeForConsumerComponentProxy.ts -->
<g id="edge24" class="edge">
<title>store/administrator/storeAdministrator.ts&#45;&gt;proxy/storeForConsumerComponentProxy.ts</title>
<path fill="none" stroke="#757575" d="M640.31,-176.3C772.43,-174.35 978.63,-174.24 1119.02,-175.97"/>
<polygon fill="#757575" stroke="#757575" points="1119.39,-179.47 1129.43,-176.1 1119.48,-172.48 1119.39,-179.47"/>
</g>
<!-- store/administrator/getters/storeGettersManager.ts -->
<g id="node9" class="node">
<title>store/administrator/getters/storeGettersManager.ts</title>
<path fill="none" stroke="#ff6c60" d="M1025.83,-144C1025.83,-144 721.17,-144 721.17,-144 717.33,-144 713.5,-140.17 713.5,-136.33 713.5,-136.33 713.5,-128.67 713.5,-128.67 713.5,-124.83 717.33,-121 721.17,-121 721.17,-121 1025.83,-121 1025.83,-121 1029.67,-121 1033.5,-124.83 1033.5,-128.67 1033.5,-128.67 1033.5,-136.33 1033.5,-136.33 1033.5,-140.17 1029.67,-144 1025.83,-144"/>
<text text-anchor="middle" x="873.5" y="-128.8" font-family="Arial" font-size="14.00" fill="#ff6c60">store/administrator/getters/storeGettersManager.ts</text>
</g>
<!-- store/administrator/storeAdministrator.ts&#45;&gt;store/administrator/getters/storeGettersManager.ts -->
<g id="edge25" class="edge">
<title>store/administrator/storeAdministrator.ts&#45;&gt;store/administrator/getters/storeGettersManager.ts</title>
<path fill="none" stroke="#757575" d="M545.37,-169.97C578.38,-163.09 630.7,-155.68 676,-149.5 686.01,-148.13 696.31,-146.74 706.7,-145.35"/>
<polygon fill="#757575" stroke="#757575" points="707.24,-148.81 716.69,-144.03 706.32,-141.87 707.24,-148.81"/>
</g>
<!-- store/administrator/hooksManager.ts -->
<g id="node10" class="node">
<title>store/administrator/hooksManager.ts</title>
<path fill="none" stroke="#ff6c60" d="M983.83,-64C983.83,-64 763.17,-64 763.17,-64 759.33,-64 755.5,-60.17 755.5,-56.33 755.5,-56.33 755.5,-48.67 755.5,-48.67 755.5,-44.83 759.33,-41 763.17,-41 763.17,-41 983.83,-41 983.83,-41 987.67,-41 991.5,-44.83 991.5,-48.67 991.5,-48.67 991.5,-56.33 991.5,-56.33 991.5,-60.17 987.67,-64 983.83,-64"/>
<text text-anchor="middle" x="873.5" y="-48.8" font-family="Arial" font-size="14.00" fill="#ff6c60">store/administrator/hooksManager.ts</text>
</g>
<!-- store/administrator/storeAdministrator.ts&#45;&gt;store/administrator/hooksManager.ts -->
<g id="edge26" class="edge">
<title>store/administrator/storeAdministrator.ts&#45;&gt;store/administrator/hooksManager.ts</title>
<path fill="none" stroke="#757575" d="M521,-169.98C544.1,-145.88 610.69,-93.11 676,-69.5 697.88,-61.59 721.9,-56.05 745.41,-52.34"/>
<polygon fill="#757575" stroke="#757575" points="746.06,-55.78 755.45,-50.86 745.04,-48.85 746.06,-55.78"/>
</g>
<!-- store/administrator/methods/storeMethodsManager.ts -->
<g id="node12" class="node">
<title>store/administrator/methods/storeMethodsManager.ts</title>
<path fill="none" stroke="#ff6c60" d="M1035.33,-242C1035.33,-242 711.67,-242 711.67,-242 707.83,-242 704,-238.17 704,-234.33 704,-234.33 704,-226.67 704,-226.67 704,-222.83 707.83,-219 711.67,-219 711.67,-219 1035.33,-219 1035.33,-219 1039.17,-219 1043,-222.83 1043,-226.67 1043,-226.67 1043,-234.33 1043,-234.33 1043,-238.17 1039.17,-242 1035.33,-242"/>
<text text-anchor="middle" x="873.5" y="-226.8" font-family="Arial" font-size="14.00" fill="#ff6c60">store/administrator/methods/storeMethodsManager.ts</text>
</g>
<!-- store/administrator/storeAdministrator.ts&#45;&gt;store/administrator/methods/storeMethodsManager.ts -->
<g id="edge27" class="edge">
<title>store/administrator/storeAdministrator.ts&#45;&gt;store/administrator/methods/storeMethodsManager.ts</title>
<path fill="none" stroke="#757575" d="M640.12,-190.59C652.25,-192.24 664.36,-193.91 676,-195.5 726.97,-202.46 785.42,-210.15 825.23,-217.15"/>
<polygon fill="#757575" stroke="#757575" points="824.72,-220.61 835.18,-218.96 825.97,-213.73 824.72,-220.61"/>
</g>
<!-- store/administrator/propertyKeys/storePropertyKeysManager.ts -->
<g id="node14" class="node">
<title>store/administrator/propertyKeys/storePropertyKeysManager.ts</title>
<path fill="none" stroke="#ff6c60" d="M1063.33,-23C1063.33,-23 683.67,-23 683.67,-23 679.83,-23 676,-19.17 676,-15.33 676,-15.33 676,-7.67 676,-7.67 676,-3.83 679.83,0 683.67,0 683.67,0 1063.33,0 1063.33,0 1067.17,0 1071,-3.83 1071,-7.67 1071,-7.67 1071,-15.33 1071,-15.33 1071,-19.17 1067.17,-23 1063.33,-23"/>
<text text-anchor="middle" x="873.5" y="-7.8" font-family="Arial" font-size="14.00" fill="#ff6c60">store/administrator/propertyKeys/storePropertyKeysManager.ts</text>
</g>
<!-- store/administrator/storeAdministrator.ts&#45;&gt;store/administrator/propertyKeys/storePropertyKeysManager.ts -->
<g id="edge28" class="edge">
<title>store/administrator/storeAdministrator.ts&#45;&gt;store/administrator/propertyKeys/storePropertyKeysManager.ts</title>
<path fill="none" stroke="#757575" d="M524.99,-169.79C549.37,-152.47 604.06,-120.12 640,-81.5 658.24,-61.9 652.29,-44.08 667.67,-28.99"/>
<polygon fill="#757575" stroke="#757575" points="669.99,-31.62 675.7,-22.69 665.67,-26.11 669.99,-31.62"/>
</g>
<!-- store/administrator/propsManager.ts -->
<g id="node15" class="node">
<title>store/administrator/propsManager.ts</title>
<path fill="none" stroke="#ff6c60" d="M982.83,-324C982.83,-324 764.17,-324 764.17,-324 760.33,-324 756.5,-320.17 756.5,-316.33 756.5,-316.33 756.5,-308.67 756.5,-308.67 756.5,-304.83 760.33,-301 764.17,-301 764.17,-301 982.83,-301 982.83,-301 986.67,-301 990.5,-304.83 990.5,-308.67 990.5,-308.67 990.5,-316.33 990.5,-316.33 990.5,-320.17 986.67,-324 982.83,-324"/>
<text text-anchor="middle" x="873.5" y="-308.8" font-family="Arial" font-size="14.00" fill="#ff6c60">store/administrator/propsManager.ts</text>
</g>
<!-- store/administrator/storeAdministrator.ts&#45;&gt;store/administrator/propsManager.ts -->
<g id="edge29" class="edge">
<title>store/administrator/storeAdministrator.ts&#45;&gt;store/administrator/propsManager.ts</title>
<path fill="none" stroke="#757575" d="M531.35,-193.21C560.07,-215.57 617.64,-262.27 676,-283.5 698.06,-291.53 722.38,-296.69 746.17,-300.12"/>
<polygon fill="#757575" stroke="#757575" points="745.95,-303.62 756.32,-301.49 746.88,-296.69 745.95,-303.62"/>
</g>
<!-- store/administrator/storeEffectsManager.ts -->
<g id="node16" class="node">
<title>store/administrator/storeEffectsManager.ts</title>
<path fill="none" stroke="#ff6c60" d="M1001.83,-283C1001.83,-283 745.17,-283 745.17,-283 741.33,-283 737.5,-279.17 737.5,-275.33 737.5,-275.33 737.5,-267.67 737.5,-267.67 737.5,-263.83 741.33,-260 745.17,-260 745.17,-260 1001.83,-260 1001.83,-260 1005.67,-260 1009.5,-263.83 1009.5,-267.67 1009.5,-267.67 1009.5,-275.33 1009.5,-275.33 1009.5,-279.17 1005.67,-283 1001.83,-283"/>
<text text-anchor="middle" x="873.5" y="-267.8" font-family="Arial" font-size="14.00" fill="#ff6c60">store/administrator/storeEffectsManager.ts</text>
</g>
<!-- store/administrator/storeAdministrator.ts&#45;&gt;store/administrator/storeEffectsManager.ts -->
<g id="edge30" class="edge">
<title>store/administrator/storeAdministrator.ts&#45;&gt;store/administrator/storeEffectsManager.ts</title>
<path fill="none" stroke="#757575" d="M547.44,-193.13C579.82,-207.54 629.81,-230.56 676,-242.5 707.75,-250.71 743.21,-255.58 775.17,-258.92"/>
<polygon fill="#757575" stroke="#757575" points="775.11,-262.43 785.42,-259.96 775.82,-255.47 775.11,-262.43"/>
</g>
<!-- store/administrator/getters/memoizedProperty.ts -->
<g id="node8" class="node">
<title>store/administrator/getters/memoizedProperty.ts</title>
<path fill="none" stroke="#ff6c60" d="M1417.33,-124C1417.33,-124 1126.67,-124 1126.67,-124 1122.83,-124 1119,-120.17 1119,-116.33 1119,-116.33 1119,-108.67 1119,-108.67 1119,-104.83 1122.83,-101 1126.67,-101 1126.67,-101 1417.33,-101 1417.33,-101 1421.17,-101 1425,-104.83 1425,-108.67 1425,-108.67 1425,-116.33 1425,-116.33 1425,-120.17 1421.17,-124 1417.33,-124"/>
<text text-anchor="middle" x="1272" y="-108.8" font-family="Arial" font-size="14.00" fill="#ff6c60">store/administrator/getters/memoizedProperty.ts</text>
</g>
<!-- store/administrator/getters/memoizedProperty.ts&#45;&gt;store/administrator/storeAdministrator.ts -->
<g id="edge11" class="edge">
<title>store/administrator/getters/memoizedProperty.ts&#45;&gt;store/administrator/storeAdministrator.ts</title>
<path fill="none" stroke="#757575" d="M1175.81,-100.99C1057.36,-89.29 849.51,-77.39 676,-112.5 626.74,-122.47 573.87,-147.75 541.99,-164.78"/>
<polygon fill="#757575" stroke="#757575" points="539.92,-161.93 532.8,-169.78 543.26,-168.08 539.92,-161.93"/>
</g>
<!-- store/administrator/getters/storeGettersManager.ts&#45;&gt;store/administrator/storeAdministrator.ts -->
<g id="edge13" class="edge">
<title>store/administrator/getters/storeGettersManager.ts&#45;&gt;store/administrator/storeAdministrator.ts</title>
<path fill="none" stroke="#757575" d="M835.18,-144.04C795.65,-151.5 731.41,-159.94 676,-167.5 667.54,-168.65 658.83,-169.85 650.06,-171.05"/>
<polygon fill="#757575" stroke="#757575" points="649.56,-167.59 640.12,-172.41 650.5,-174.52 649.56,-167.59"/>
</g>
<!-- store/administrator/getters/storeGettersManager.ts&#45;&gt;store/administrator/getters/memoizedProperty.ts -->
<g id="edge12" class="edge">
<title>store/administrator/getters/storeGettersManager.ts&#45;&gt;store/administrator/getters/memoizedProperty.ts</title>
<path fill="none" stroke="#757575" d="M1033.77,-124.47C1058.47,-123.22 1084.01,-121.93 1108.77,-120.68"/>
<polygon fill="#757575" stroke="#757575" points="1109.14,-124.17 1118.95,-120.17 1108.79,-117.18 1109.14,-124.17"/>
</g>
<!-- store/administrator/hooksManager.ts&#45;&gt;store/administrator/storeAdministrator.ts -->
<g id="edge14" class="edge">
<title>store/administrator/hooksManager.ts&#45;&gt;store/administrator/storeAdministrator.ts</title>
<path fill="none" stroke="#757575" d="M787.91,-64.01C752.51,-68.08 711.44,-74.69 676,-87.5 624.95,-105.95 573.13,-142.22 541.89,-164.14"/>
<polygon fill="#757575" stroke="#757575" points="539.83,-161.32 533.65,-169.92 543.84,-167.05 539.83,-161.32"/>
</g>
<!-- store/administrator/methods/methodProxyHandler.ts -->
<g id="node11" class="node">
<title>store/administrator/methods/methodProxyHandler.ts</title>
<path fill="none" stroke="#ff6c60" d="M1429.33,-303C1429.33,-303 1114.67,-303 1114.67,-303 1110.83,-303 1107,-299.17 1107,-295.33 1107,-295.33 1107,-287.67 1107,-287.67 1107,-283.83 1110.83,-280 1114.67,-280 1114.67,-280 1429.33,-280 1429.33,-280 1433.17,-280 1437,-283.83 1437,-287.67 1437,-287.67 1437,-295.33 1437,-295.33 1437,-299.17 1433.17,-303 1429.33,-303"/>
<text text-anchor="middle" x="1272" y="-287.8" font-family="Arial" font-size="14.00" fill="#ff6c60">store/administrator/methods/methodProxyHandler.ts</text>
</g>
<!-- store/administrator/methods/methodProxyHandler.ts&#45;&gt;store/administrator/storeAdministrator.ts -->
<g id="edge15" class="edge">
<title>store/administrator/methods/methodProxyHandler.ts&#45;&gt;store/administrator/storeAdministrator.ts</title>
<path fill="none" stroke="#757575" d="M1239.22,-303.01C1147.83,-334.2 877.91,-412.86 676,-333.5 607.79,-306.69 551.14,-236.55 526.19,-201.72"/>
<polygon fill="#757575" stroke="#757575" points="528.88,-199.47 520.27,-193.29 523.15,-203.48 528.88,-199.47"/>
</g>
<!-- store/administrator/methods/storeMethodsManager.ts&#45;&gt;proxy/storeForConsumerComponentProxy.ts -->
<g id="edge16" class="edge">
<title>store/administrator/methods/storeMethodsManager.ts&#45;&gt;proxy/storeForConsumerComponentProxy.ts</title>
<path fill="none" stroke="#757575" d="M967.71,-218.98C1027.67,-211.57 1105.65,-201.93 1167.53,-194.29"/>
<polygon fill="#757575" stroke="#757575" points="1168.21,-197.73 1177.71,-193.03 1167.35,-190.78 1168.21,-197.73"/>
</g>
<!-- store/administrator/methods/storeMethodsManager.ts&#45;&gt;store/administrator/storeAdministrator.ts -->
<g id="edge18" class="edge">
<title>store/administrator/methods/storeMethodsManager.ts&#45;&gt;store/administrator/storeAdministrator.ts</title>
<path fill="none" stroke="#757575" d="M716.69,-218.97C702.93,-217.16 689.21,-215.3 676,-213.5 635.12,-207.92 588.53,-201.35 555.57,-195.06"/>
<polygon fill="#757575" stroke="#757575" points="555.86,-191.55 545.37,-193.03 554.5,-198.41 555.86,-191.55"/>
</g>
<!-- store/administrator/methods/storeMethodsManager.ts&#45;&gt;store/administrator/methods/methodProxyHandler.ts -->
<g id="edge17" class="edge">
<title>store/administrator/methods/storeMethodsManager.ts&#45;&gt;store/administrator/methods/methodProxyHandler.ts</title>
<path fill="none" stroke="#757575" d="M998.41,-242.01C1022.54,-244.74 1047.6,-247.92 1071,-251.5 1117.85,-258.67 1170.38,-269.28 1209.85,-277.77"/>
<polygon fill="#757575" stroke="#757575" points="1209.33,-281.24 1219.85,-279.93 1210.81,-274.4 1209.33,-281.24"/>
</g>
<!-- store/administrator/propertyKeys/observableProperty.ts -->
<g id="node13" class="node">
<title>store/administrator/propertyKeys/observableProperty.ts</title>
<path fill="none" stroke="#ff6c60" d="M339.33,-193C339.33,-193 7.67,-193 7.67,-193 3.83,-193 0,-189.17 0,-185.33 0,-185.33 0,-177.67 0,-177.67 0,-173.83 3.83,-170 7.67,-170 7.67,-170 339.33,-170 339.33,-170 343.17,-170 347,-173.83 347,-177.67 347,-177.67 347,-185.33 347,-185.33 347,-189.17 343.17,-193 339.33,-193"/>
<text text-anchor="middle" x="173.5" y="-177.8" font-family="Arial" font-size="14.00" fill="#ff6c60">store/administrator/propertyKeys/observableProperty.ts</text>
</g>
<!-- store/administrator/propertyKeys/observableProperty.ts&#45;&gt;proxy/adtProxy/adtProxyBuilder.ts -->
<g id="edge19" class="edge">
<title>store/administrator/propertyKeys/observableProperty.ts&#45;&gt;proxy/adtProxy/adtProxyBuilder.ts</title>
<path fill="none" stroke="#757575" d="M190.26,-193.32C244.28,-233.84 422.26,-367.32 486.83,-415.75"/>
<polygon fill="#757575" stroke="#757575" points="485.07,-418.8 495.17,-422 489.27,-413.2 485.07,-418.8"/>
</g>
<!-- store/administrator/propertyKeys/observableProperty.ts&#45;&gt;store/administrator/storeAdministrator.ts -->
<g id="edge20" class="edge">
<title>store/administrator/propertyKeys/observableProperty.ts&#45;&gt;store/administrator/storeAdministrator.ts</title>
<path fill="none" stroke="#757575" d="M347.42,-181.5C355.88,-181.5 364.32,-181.5 372.66,-181.5"/>
<polygon fill="#757575" stroke="#757575" points="372.78,-185 382.78,-181.5 372.78,-178 372.78,-185"/>
</g>
<!-- store/administrator/propertyKeys/storePropertyKeysManager.ts&#45;&gt;store/administrator/storeAdministrator.ts -->
<g id="edge22" class="edge">
<title>store/administrator/propertyKeys/storePropertyKeysManager.ts&#45;&gt;store/administrator/storeAdministrator.ts</title>
<path fill="none" stroke="#757575" d="M715.18,-23.08C701.34,-27.26 688.04,-32.91 676,-40.5 650.01,-56.87 660.92,-77.01 640,-99.5 615.31,-126.04 581.77,-149.61 555.28,-164.84"/>
<polygon fill="#757575" stroke="#757575" points="553.27,-161.95 546.24,-169.87 556.68,-168.07 553.27,-161.95"/>
</g>
<!-- store/administrator/propertyKeys/storePropertyKeysManager.ts&#45;&gt;store/administrator/propertyKeys/observableProperty.ts -->
<g id="edge21" class="edge">
<title>store/administrator/propertyKeys/storePropertyKeysManager.ts&#45;&gt;store/administrator/propertyKeys/observableProperty.ts</title>
<path fill="none" stroke="#757575" d="M728.23,-23.02C710.56,-25.36 692.82,-28.16 676,-31.5 501.09,-66.23 299.66,-135.85 215.14,-166.47"/>
<polygon fill="#757575" stroke="#757575" points="213.86,-163.21 205.66,-169.92 216.26,-169.79 213.86,-163.21"/>
</g>
<!-- store/administrator/propsManager.ts&#45;&gt;store/administrator/storeAdministrator.ts -->
<g id="edge23" class="edge">
<title>store/administrator/propsManager.ts&#45;&gt;store/administrator/storeAdministrator.ts</title>
<path fill="none" stroke="#757575" d="M756.32,-318.97C729.38,-316.11 701.22,-310.67 676,-301.5 614.96,-279.29 554.79,-229.23 527.58,-201.01"/>
<polygon fill="#757575" stroke="#757575" points="529.86,-198.33 520.52,-193.34 524.72,-203.07 529.86,-198.33"/>
</g>
<!-- store/administrator/storeEffectsManager.ts&#45;&gt;store/administrator/storeAdministrator.ts -->
<g id="edge31" class="edge">
<title>store/administrator/storeEffectsManager.ts&#45;&gt;store/administrator/storeAdministrator.ts</title>
<path fill="none" stroke="#757575" d="M737.3,-272.08C716.58,-269.36 695.59,-265.56 676,-260.5 622.36,-246.63 563.59,-217.81 533.23,-198.72"/>
<polygon fill="#757575" stroke="#757575" points="535.03,-195.71 524.76,-193.13 531.18,-201.56 535.03,-195.71"/>
</g>
</g>
</svg>
